<?xml version="1.0" encoding="utf-8"?>
<!-- Generator: Adobe Illustrator 25.4.1, SVG Export Plug-In . SVG Version: 6.00 Build 0)  -->
<svg version="1.1" id="图层_1" xmlns="http://www.w3.org/2000/svg" xmlns:xlink="http://www.w3.org/1999/xlink" x="0px" y="0px"
	 width="484px" height="157px" viewBox="0 0 484 157" style="enable-background:new 0 0 484 157;" xml:space="preserve">
<style type="text/css">
	.st0{fill:#0066FF;}
</style>
<g>
	<path d="M60.2,94.8l-0.8,0.9L58,96.4V97c-0.9-0.4-1.9-0.6-3.1-0.6c-0.7,0-1.3,0.1-1.9,0.2l-1.7-1.1l-0.3,0.7L48,92.7l-0.5-2.6
		l0.3-1.5L47,87.3l-2.5-1.6l-0.5-2.3L43,83c-2.3-4.7-3.5-7.9-3.6-9.5l0.2-0.4l-0.6-0.2l-1,0.6l0.2,0.4l-1.9,2.3
		c-0.3,1-0.9,4.5-1.7,10.5l-0.8,1.3l0.3,2.4l-0.8,1.1V93l-0.9-0.6l0.4,1.1v1l0.5,0.9l-0.3,1.1l0.5,0.7v5.4l0.3,1l-0.3,0.7h-0.5
		c0.1,1-0.1,2.7-0.6,5.1c-0.9-1-2.4-2.2-4.4-3.7c-0.4-3.5-0.6-6.9-0.6-10.2c0-0.5,0.1-1.7,0.4-3.6c0.3-2,0.4-3.3,0.4-4.1
		c0-0.6-0.1-1.1-0.2-1.3l0.3-0.2c-0.1-2.8,0-7,0.3-12.5l-1.7-4.4c-1.1,0-2.6,0.9-4.6,2.7c-2,1.8-3.3,3.5-3.7,4.9h-0.3
		c-2.5,2.9-4.4,6-5.5,9.2h-0.6c-1,1.1-2.5,3.3-4.6,6.7c-1.7,1.5-3.1,2.2-4.1,1.9L2,95.4H0.7c0.5-0.7,0.9-1.1,1-1.4L3,93
		c0.3-0.7,0.8-1.5,1.6-2.3c1.1-1,1.7-1.7,2-2c0.4-0.8,1-2,1.8-3.4c0.8-1,2-2.6,3.6-4.7c0.6-0.8,1.7-2.6,3.3-5.4l0.8-1.1l0.3-1.9
		l1.4-2.1c0.6-0.2,1.3-0.6,2.1-1.2c0.9-0.8,1.5-1.3,1.8-1.4c0.5-0.2,2.2-0.9,5.1-1.8l3.8,1.4l2.3,3.3c0.1,1.5,0.2,3.6,0.2,6.4
		l0.3,0.4l1.3-3.3l0.9-0.4v-1.2l1.9-2.1l3-1.1l2.2,0.3l3,3.7c-0.2,0.7-0.2,1.2-0.2,1.4h-0.3v2.7l0.9,1.1l0.5-0.4l0.3-0.7h0.8
		c0.8,1.1,1.8,2.4,3.1,3.7l-1.2,3.2l1.4,1.8c0,1.3,0.7,3.2,2.1,5.6l2.1,1.4l0.5-0.4l0.8,0.8l2.2-0.4l1.4,1.1V94.8z"/>
	<path d="M95.6,80.9c-0.3,0.5-0.5,3.6-0.5,9.4L94.5,91v1.6c-0.5,0.4-1.2,1.8-2,4.1L92,97.1l0.2,1.7l-0.7,2v0.7l-0.8,1v0.6h-0.3
		l-0.4,1.1h-0.5l-0.3,1.6c-1.2,1.5-3.1,2.9-5.8,4.1H82l-0.3-0.4l-1.7-0.2c-3.4-2.7-5.2-4.1-5.5-4.1l-0.3-1.4l-3.9-5.6
		c-0.2-1.4-1-3.7-2.3-6.9c-1.2-2.8-1.8-5.2-1.8-7V62c0-0.8,0.1-2,0.4-3.6c0.4-1.9,0.6-3.1,0.6-3.5c0-1,0.1-2.5,0.3-4.4l3.6-18.2
		c0.4-1,0.8-2.1,1.4-3.4c0.5-1.6,1-3.3,1.4-4.9c0.6-1.9,1.3-3.4,2.2-4.5c0.2-2,1-3.9,2.4-6c0.6-0.7,1.1-1.4,1.7-2.1
		c0.8-0.9,1.4-1.4,2-1.4c0.2,0,0.9,0.3,2.2,0.8c1.3,0.5,2.3,0.7,3,0.7l1.4,2.1l1,0.2l2,2l-0.3,0.4l0.3,1.2h-0.5
		c0.7,1,0.9,2.3,0.7,4.1c-0.2,2.2-0.5,4.4-0.8,6.6c-0.3,2.8-0.4,5-0.3,6.5c-2.1,5-3.7,10.5-4.7,16.5l-2.5,4.1l-0.2,2.1l-1.2,0.9
		L82,60.1l-0.9,1l-1.3,5.4l-0.3,0.3l-1.1,4.1c-0.3,0.2-0.9,1.1-1.7,2.7v1.4l-0.5,0.2v1l-0.6,0.6l-0.2,2.4l-0.6-0.4
		c-0.2,1.7-1,3.4-2.2,5.1c1.3,3.7,2,6.4,2,8l-0.6-0.4l-0.2,0.7l0.8,3.3l1.1,0.7c0.7,2.7,1.6,4.9,2.5,6.7c0.8,0.6,1.9,1.7,3.4,3.3
		l1.5,0.4l2-0.7l1.7-2c0.4-1.5,0.6-2.5,0.8-2.9c0.4-1.2,0.9-2,1.4-2.5l0.2-1.1l-0.2-2.1c0.2-0.2,0.8-1,1.7-2.2l0.2-2.1l-0.5,0.2
		l-0.9-0.9c0.2-6.9,0.3-10.4,0.3-10.5c0-0.3-0.2-2.2-0.6-5.8l-1-0.6l-0.6-0.7l-0.6,0.4l-0.2-0.4l-0.3,0.4h-0.9L85,74.1l-0.8,0.4
		l-0.9,2.7l-0.8,1.1l0.3,0.4c-0.5,1.1-0.7,2.7-0.5,4.7L81.7,85l-0.6,0.7l0.9,0.6l0.8-0.2v1.2l-0.3,0.4l0.5,0.3l0.3,3.4l-0.8-1.7
		L82,89.9l-2.5-1.6c-0.4-0.5-0.9-2-1.4-4.4c0.1-3.1,1.5-7.3,4.4-12.5l2.8-2.3c1.9-0.2,3-0.4,3.1-0.4c0.4,0,1.1,0.2,2.2,0.7l0.8,0.7
		H92v1h0.6c2,3.4,3,6.3,3,8.7H95L95.6,80.9z M89.4,21l-0.5-0.4l-0.3-1.2l0.3-0.8l-0.8-0.6l-0.6-2.7h-0.8l-0.8,1.1L85,15.2l-3.3,2.1
		v0.2l-1.9,2.1c-0.3,3.5-0.7,5.6-1.2,6.4l0.3,3.7l-0.5,1.7l0.2,0.7c-0.7,1.5-1.5,3.8-2.4,7l-0.6,0.6v1.4c-0.4,1.5-1.2,3.7-2.2,6.4
		v0.7l-0.8,2.4v1.7l-0.6,0.6l0.3,0.4c-1,4.2-1.4,7.2-1.4,9v6.4c0,1.2,0.2,2.8,0.5,4.9c0.4,2.9,0.6,4.5,0.7,5
		c0.5-1.5,1.4-3.5,2.5-6.1h0.3l1.4-4l-0.3-0.7c0.8-1.2,1.4-3,1.9-5.4l1.7-2.3c0-0.5,0.6-2.1,1.7-4.7c1.1-2.6,1.8-4.1,2.1-4.5
		c0.3-1.5,0.8-3.7,1.4-6.7c0.1-1.9,0.5-4.6,1-8.3c0.1-0.5,0.5-1.4,1.1-2.7c0.5-1.1,0.8-2.1,0.8-2.8h0.2V29C88.5,27.7,89,25,89.4,21z
		"/>
	<path d="M145.3,94.2l-0.5,1l-1.4,0.9v1.2l-1.4,0.4l-0.3,0.6c-2.1,1.2-3.7,3.1-4.7,5.6l-2.7,1.6v0.6H134l-0.6,1.3l-2.4,1.2
		c-0.6,0-1.5,0-2.7,0.1c-1.2,0-2.1,0.1-2.7,0.1c0.5,0-1.1-0.3-4.7-1l-0.6-0.4v0.4l-2.5-0.6l-5.5-5.7c-0.2-0.5-0.5-1.1-0.9-1.7
		c-0.3-0.3-0.8-0.8-1.3-1.4c-1.3-1.9-2.4-5-3.4-9.4c-0.2-0.7-0.4-1.5-0.7-2.2c-0.2-0.9-0.3-1.6-0.2-2.2l-0.3-1
		c0.6-4,0.8-7.6,0.6-10.7h0.2l2.5-5.7h0.3c3.9-6.1,8.9-10.6,15-13.4l3.6-0.4l1.7,1.2l0.3,1l2.5,1.4c1.5,1.6,2.4,3.3,2.7,5v0.7
		l0.5,1.3v3.1l0.6,0.6c0.1,2.2-0.3,4.3-1.1,6.1l-0.8,0.6l0.3,0.4c-0.5,0.4-1,1.3-1.7,2.7l-0.8,0.6l-0.6,1.4l-1.6,0.9l-0.3-0.2
		l-1.1,1.6h-0.8c-0.4,0-1.2-0.2-2.2-0.6l-1.2-1.4c-0.2-3.3-0.8-5.5-1.7-6.7l0.4-1.7c-0.4-1.2-0.6-2.2-0.6-2.9c0-0.7,0.1-1.6,0.2-2.8
		l1.2-1.9l0.8-0.4l1.4,0.7l0.3,1.4l-1.5,3.7l0.4,3.4c0.6,2,1.4,3.4,2.5,4.3l1-1.9l0.6-0.4c0.6-1.4,1.4-3.5,2.5-6.4l-0.3-1l-0.8-0.4
		c0.1-2.1,0-4.1-0.3-6.1l-0.5-0.6v-1.8l-0.9-0.9l-1.1-0.4v-0.4l-2.2-0.2c-3.4,0.7-5.9,3-7.5,7l0.4,1.4l-2.9,6h-0.2l-0.3,1.4h-0.3
		c-0.1,1-0.4,2.6-1.1,4.9h0.4l-1.2,1.1c0,1.6,0.2,3.8,0.5,6.7l-0.5,1.7c0,0.6,0.3,2.4,0.8,5.2c0.4,2.7,0.7,4.2,0.6,4.5
		c0.6,0.7,1.2,2.1,1.6,4.1l3.1,2.3v0.7l5.8,2.1c2.1-0.9,3.7-1.2,4.8-1l0.3-0.4v-0.4l1.6-1.6l1.4-0.2l1.7-1.4l0.2-0.6l1.4-0.4
		l0.3-1.3l3-1l1.4-1.4h0.2l3-3.1h0.1l0.9,0.4L145.3,94.2z"/>
	<path d="M200.4,94.4c-0.4,1.1-1,2.7-1.9,4.7c-0.5,1-1.7,3.1-3.8,6.4l0.3,0.6l-2.5,0.7l-1.4,1.4l-5.3-1.8c-2.6-1.5-4.9-4.9-7-10.3
		l0.8,0.2l0.3-1.1h1.1l-1.7-1.6l-0.2-0.7l0.5-0.4l-0.5-1l-0.3-0.2l-0.4,0.2l-0.2-0.2l0.9-1.1l-0.3-0.6l-1.2,0.2
		c-0.7-2.6-1-5.1-0.7-7.7c-1.6-2.9-2.5-5.5-2.6-7.8l-3.9,8.9V85c-1.4,1.3-2.8,3.9-4.2,7.9c-1,3.1-2.1,6.2-3.1,9.2c0.1,1,0,2-0.2,3.1
		l0.6,1c-0.5,2.3-0.7,4.3-0.6,6.1l-0.8,1.4l0.5,1.1h-1.9l-0.6-1.1l-1-0.6l-0.6-1.4l-1.4-1h-1.1l-1.1-1.2l-0.2-1.4l-0.9-1
		c-0.2-0.8-0.3-3.1-0.3-6.8c0-0.1,0.1-0.4,0.2-1s0.2-0.9,0.2-1h0.2c1.4-5.1,2.1-9.1,2.1-11.9c0-0.7,0-1.4-0.1-2.1h0.5l0.9-5
		c-1,1.3-2.4,3.3-4.2,6c-0.3,0.7-0.7,1.8-1.4,3.1c-0.9,1-2.2,2.4-3.9,4.3l-0.4,0.5c-2.1,1.2-3.7,2.1-4.8,2.6h-0.8l-0.2-2.1
		c2-0.4,3.6-1.7,4.9-3.9h0.5v-0.7l0.8-0.2l1.2-1.7v-0.7c2.3-2.1,4.6-5.2,7-9.1h0.2l2-2.2c0.5-2.2,1-5.5,1.7-9.9
		c-0.1-2.6-0.1-6.4,0-11.4c0.4-2.5,1.1-6.2,1.9-11.2c0-1.1,0.1-2.8,0.3-5.1c0.4-1.5,0.9-3.8,1.7-6.8c0.2-2.1,0.6-5.1,1.3-9
		c0.7-1.5,1.6-3.8,2.8-6.8c0.2-0.5,0.6-2,1.4-4.8c0.8-2.7,1.1-4.2,1.1-4.5l1.9-2.4l0.3-1.1h0.3v-1l0.8,0.7l0.5-1.4l1.1,0.6V0.4h0.8
		l0.9,2.7c0,0.3-0.1,0.7-0.1,1c0,1.3,0.4,3,1.3,5.1c0.9,2.1,1.3,3.6,1.3,4.6l1,2c-0.1,1.5-0.2,2.7-0.2,3.5c0,0.2,0,0.4,0.1,0.8
		c0.1,0.4,0.1,0.6,0.1,0.8c0,0.9-0.5,3.1-1.3,6.7c-0.8,3.6-1.4,5.7-1.8,6.5c0.1,0.4,0.1,0.9,0.1,1.4c0,2.3-0.5,5.1-1.5,8.3l-0.8,0.6
		c-1.6,5-2.9,8.2-3.9,9.5v3.7l-0.7,1.7h-0.6l-0.9,3.7c-0.7,0.3-1.5,1.1-2.4,2.4c-0.2,0.5-0.3,1.1-0.3,1.7c0,0.2,0.1,1.4,0.3,3.7
		l-1.1,1.7l-0.4,2.7l-1,2l-0.8,5.4l-0.9-1l-0.5,2.1h0.5c-0.3,0.9-0.4,1.7-0.3,2.4l-0.2,0.6l0.8,1.3l0.6-0.3l-0.6,7
		c1.5-2.6,3.3-6.8,5.4-12.7c1.4-4.3,2.9-8.6,4.3-12.9l1.9-2.4l2-0.3l0.4-1c0.6,0.8,1.6,1.6,3,2.3c0.9,1.3,2.2,3.7,3.8,7.2l0.8,7.4
		h-0.2l0.5,2.3h-0.5l-0.3,2.7c0.7,2.7,1.4,4.5,2,5.4l0.2,1.4l-0.2,0.4c0.1,0.7,0.4,1.7,1,2.9l-0.5,0.7v1.3h0.2l-0.2,3.1l2.2,2.3h1.1
		c1.4-1,3-2.7,4.9-5.2c1.9-2.5,3.2-4.6,4.1-6.3L200.4,94.4z M178,24.1c-0.8-2.6-1.1-4.8-1-6.8l-0.7-1l0.3-1.7
		c-0.9-2.2-1.3-3.9-1.3-5.1l-1.7,0.4c-1.7,2.3-2.5,5.7-2.5,10.1h0.3c-0.3,1.4-0.8,3.5-1.4,6.4c-0.1,0.9-0.3,3.8-0.5,8.7
		c-0.2,4.9-0.3,8-0.3,9.2c-0.5,1-0.8,2-0.8,2.9l-0.9,0.4c-0.4,4.8-0.6,8.1-0.5,9.9c1.6-2.6,3.6-6.8,6.1-12.5
		c0.1-0.8,0.2-2.1,0.5-3.7c0.3-0.7,0.6-1.7,1.1-3.1C175.2,34.9,176.4,30.2,178,24.1z"/>
	<path d="M241.8,91.7l-0.8,0.6v0.4c-0.4,0.5-0.7,1-0.9,1.3l-1.1,1v0.4l-1.2,1.2c-1.7,0.3-3.6,1.3-5.7,2.8l-1.4-1.1l0.8,1.4h-1.1
		l-1.9,2.1h-2l-1,0.6c-0.4,0-1.6,0-3.4,0.2l-0.8-0.6l-0.9,0.4c-1.4-0.8-2.7-1-3.9-0.4c-0.8-0.1-2-1-3.6-2.7v-0.6l-1.7-1.7H211
		l-0.6-1l-0.7-0.4l-0.4-0.6l-0.8-0.6c-0.2-0.7-0.6-1.3-1.2-1.8V92l-0.7-1v-3.1l-0.8-0.9l-0.7,0.2c-0.1-1.5-0.5-2.8-1.3-3.9l-0.2-2.1
		l0.5-2.4l1-0.2l-0.5-0.4v-1.7h-0.5l-0.3-1l-1.4-1.1l0.9-3.1l1.6-0.2l1.7,2.7c0.3-1.1,1.1-2.7,2.4-4.7c1.3-2,2.3-3.2,3.1-3.4
		l0.6,0.4l0.7-1.2v-0.7c3.2-1.6,5.4-2.4,6.7-2.4c0.2,0,0.4,0,0.6,0.1l0.8-0.4h2.2l0.8,0.6l0.9-0.2l2.5,0.6c1.4,1,2.6,2.2,3.6,3.7
		v2.1l1.7,3.3l-0.8,1.7v0.7l-0.3,1.1v1h0.5l-0.8,2.7l-0.8,0.6h-0.6c-0.5,0.3-1,0.7-1.4,1.3h-0.8l-0.5,1c-1.7,0.3-3,0.5-3.9,0.4v-0.4
		c-2.1-0.3-4.1-0.4-5.8-0.2l-0.6,0.6h-1l-0.4,0.4l-0.8-1h-1.7V83c0.4,2.3,0.7,3.7,0.9,4.3l-0.9,0.4l1.5,2.7V92l1.6,0.6l1.4,2.1
		l0.9,0.4l0.2,1.1l2,0.6c1.7-0.3,3-0.5,3.9-0.4l0.3-0.7l0.3,0.7l0.8-0.2l1.7,0.2l1.9-1.3l0.5,0.2l0.6-0.6l1.4-0.2v-0.7l3.2,0.4v-0.6
		l1.6-0.4c1.2-0.9,2-1.6,2.3-2.2c0.4-0.3,1-0.9,1.7-1.6l0.5,0.5V91.7z M231.1,70.8l-0.6-1.4c-1.4-1.5-3-2.3-4.7-2.3h-2.2
		c-2.4,0-4.2,0.5-5.3,1.4l-0.5,0.6l0.5,0.3l-2.4,4.1l-0.3,1.4l-0.8-0.4v1.4l-0.5,0.9v1.1c1.8-0.2,3.8,0,6.1,0.7
		c1.1-0.1,2.8-0.6,5-1.6c2.5-1.1,3.8-2.1,4.1-2.9l0.3-0.6l0.8-0.6L231.1,70.8z"/>
	<path d="M297.9,94.8l-0.8,0.9l-1.4,0.7V97c-0.9-0.4-1.9-0.6-3.1-0.6c-0.7,0-1.3,0.1-1.9,0.2l-1.7-1.1l-0.3,0.7l-3.1-3.5l-0.5-2.6
		l0.3-1.5l-0.8-1.4l-2.5-1.6l-0.5-2.3l-0.9-0.4c-2.3-4.7-3.5-7.9-3.6-9.5l0.2-0.4l-0.6-0.2l-1,0.6l0.2,0.4l-1.9,2.3
		c-0.3,1-0.9,4.5-1.7,10.5l-0.8,1.3l0.3,2.4l-0.8,1.1V93l-0.9-0.6l0.4,1.1v1l0.5,0.9l-0.3,1.1l0.5,0.7v5.4l0.3,1l-0.3,0.7h-0.5
		c0.1,1-0.1,2.7-0.6,5.1c-0.9-1-2.4-2.2-4.4-3.7c-0.4-3.5-0.6-6.9-0.6-10.2c0-0.5,0.1-1.7,0.4-3.6c0.3-2,0.4-3.3,0.4-4.1
		c0-0.6-0.1-1.1-0.2-1.3l0.3-0.2c-0.1-2.8,0-7,0.3-12.5l-1.7-4.4c-1.1,0-2.6,0.9-4.6,2.7c-2,1.8-3.3,3.5-3.7,4.9h-0.3
		c-2.5,2.9-4.4,6-5.5,9.2h-0.6c-1,1.1-2.5,3.3-4.6,6.7c-1.7,1.5-3.1,2.2-4.1,1.9l-1.4,0.7h-1.3c0.5-0.7,0.9-1.1,1-1.4l1.3-1.1
		c0.3-0.7,0.8-1.5,1.6-2.3c1.1-1,1.7-1.7,2-2c0.4-0.8,1-2,1.8-3.4c0.8-1,2-2.6,3.6-4.7c0.6-0.8,1.7-2.6,3.3-5.4l0.8-1.1l0.3-1.9
		l1.4-2.1c0.6-0.2,1.3-0.6,2.1-1.2c0.9-0.8,1.5-1.3,1.8-1.4c0.5-0.2,2.2-0.9,5.1-1.8l3.8,1.4l2.3,3.3c0.1,1.5,0.2,3.6,0.2,6.4
		l0.3,0.4l1.3-3.3l0.9-0.4v-1.2l1.9-2.1l3-1.1l2.2,0.3l3,3.7c-0.2,0.7-0.2,1.2-0.2,1.4h-0.3v2.7l0.9,1.1l0.5-0.4l0.3-0.7h0.8
		c0.8,1.1,1.8,2.4,3.1,3.7l-1.2,3.2l1.4,1.8c0,1.3,0.7,3.2,2.1,5.6l2.1,1.4l0.5-0.4l0.8,0.8l2.2-0.4l1.4,1.1V94.8z"/>
	<path d="M314,72.4l-0.3,0.9l-1.3,1.4h-2.2l-1.1,2l-1.5,0.2l-0.2-0.6l-0.5-0.2l0.3-1l-1.4-1.4c-0.9-1.9-1.4-3.7-1.4-5.6
		c0-0.2,0-0.4,0-0.8l0.9-2.7c1.3,0.3,3.3,0.8,6.1,1.6C312.3,68.1,313.2,70.1,314,72.4z"/>
	<path class="st0" d="M355.5,80.9c-0.3,0.5-0.5,3.6-0.5,9.4l-0.5,0.7v1.6c-0.5,0.4-1.2,1.8-2,4.1l-0.6,0.4l0.2,1.7l-0.7,2v0.7
		l-0.8,1v0.6h-0.3l-0.4,1.1h-0.5l-0.3,1.6c-1.2,1.5-3.1,2.9-5.8,4.1h-1.3l-0.3-0.4l-1.7-0.2c-3.4-2.7-5.2-4.1-5.5-4.1l-0.3-1.4
		l-3.9-5.6c-0.2-1.4-1-3.7-2.3-6.9c-1.2-2.8-1.8-5.2-1.8-7V62c0-0.8,0.1-2,0.4-3.6c0.4-1.9,0.6-3.1,0.6-3.5c0-1,0.1-2.5,0.3-4.4
		l3.6-18.2c0.4-1,0.8-2.1,1.4-3.4c0.5-1.6,1-3.3,1.4-4.9c0.6-1.9,1.3-3.4,2.2-4.5c0.2-2,1-3.9,2.4-6c0.6-0.7,1.1-1.4,1.7-2.1
		c0.8-0.9,1.4-1.4,2-1.4c0.2,0,0.9,0.3,2.2,0.8c1.3,0.5,2.3,0.7,3,0.7l1.4,2.1l1,0.2l2,2l-0.3,0.4l0.3,1.2h-0.5
		c0.7,1,0.9,2.3,0.7,4.1c-0.2,2.2-0.5,4.4-0.8,6.6c-0.3,2.8-0.4,5-0.3,6.5c-2.1,5-3.7,10.5-4.7,16.5l-2.5,4.1l-0.2,2.1l-1.2,0.9
		l-0.5,1.8l-0.9,1l-1.3,5.4l-0.3,0.3l-1.1,4.1c-0.3,0.2-0.9,1.1-1.7,2.7v1.4l-0.5,0.2v1l-0.6,0.6l-0.2,2.4l-0.6-0.4
		c-0.2,1.7-1,3.4-2.2,5.1c1.3,3.7,2,6.4,2,8l-0.6-0.4l-0.2,0.7l0.8,3.3l1.1,0.7c0.7,2.7,1.6,4.9,2.5,6.7c0.8,0.6,1.9,1.7,3.4,3.3
		l1.5,0.4l2-0.7l1.7-2c0.4-1.5,0.6-2.5,0.8-2.9c0.4-1.2,0.9-2,1.4-2.5l0.2-1.1l-0.2-2.1c0.2-0.2,0.8-1,1.7-2.2l0.2-2.1l-0.5,0.2
		l-0.9-0.9c0.2-6.9,0.3-10.4,0.3-10.5c0-0.3-0.2-2.2-0.6-5.8l-1-0.6l-0.6-0.7l-0.6,0.4l-0.2-0.4l-0.3,0.4h-0.9l-0.5,0.6l-0.8,0.4
		l-0.9,2.7l-0.8,1.1l0.3,0.4c-0.5,1.1-0.7,2.7-0.5,4.7l-0.6,1.6l-0.6,0.7l0.9,0.6l0.8-0.2v1.2l-0.3,0.4l0.5,0.3l0.3,3.4l-0.8-1.7
		l-0.5,0.2l-2.5-1.6c-0.4-0.5-0.9-2-1.4-4.4c0.1-3.1,1.5-7.3,4.4-12.5l2.8-2.3c1.9-0.2,3-0.4,3.1-0.4c0.4,0,1.1,0.2,2.2,0.7l0.8,0.7
		h0.5v1h0.6c2,3.4,3,6.3,3,8.7H355L355.5,80.9z M349.4,21l-0.5-0.4l-0.3-1.2l0.3-0.8l-0.8-0.6l-0.6-2.7h-0.8l-0.8,1.1l-0.9-1.1
		l-3.3,2.1v0.2l-1.9,2.1c-0.3,3.5-0.7,5.6-1.2,6.4l0.3,3.7l-0.5,1.7l0.2,0.7c-0.7,1.5-1.5,3.8-2.4,7l-0.6,0.6v1.4
		c-0.4,1.5-1.2,3.7-2.2,6.4v0.7l-0.8,2.4v1.7l-0.6,0.6l0.3,0.4c-1,4.2-1.4,7.2-1.4,9v6.4c0,1.2,0.2,2.8,0.5,4.9
		c0.4,2.9,0.6,4.5,0.7,5c0.5-1.5,1.4-3.5,2.5-6.1h0.3l1.4-4l-0.3-0.7c0.8-1.2,1.4-3,1.9-5.4l1.7-2.3c0-0.5,0.6-2.1,1.7-4.7
		c1.1-2.6,1.8-4.1,2.1-4.5c0.3-1.5,0.8-3.7,1.4-6.7c0.1-1.9,0.5-4.6,1-8.3c0.1-0.5,0.5-1.4,1.1-2.7c0.5-1.1,0.8-2.1,0.8-2.8h0.2V29
		C348.4,27.7,349,25,349.4,21z"/>
	<path class="st0" d="M405.1,92.6c-0.9,1.3-1.8,2.5-2.8,3.7l-1,0.5l-1.8,2.7c-1.7,0.4-3.2,1.3-4.4,2.6c-1.9,0.2-2.9,0.4-2.9,0.4
		c-2.1,0-4.3-1-6.7-3.1V99c-0.4-0.9-0.9-1.5-1.5-1.9v-1l-0.2-0.4l-0.3,0.7v-1.7l-0.5,0.4l-1.6-3.4l-1.1-0.6v-0.2l-1.1-1.8h-0.3v-1.3
		l-0.9-0.6c-0.7,0.6-1.2,1.6-1.5,2.9v0.8l-0.7,0.6l-0.2,1.6l-1.7,2.7h-0.3l-0.2,1.4l-3.7,6.4l-0.3,1.1l-2.8,3.9l-0.2,1.1l-1.2,1
		l-0.2,0.7v-0.4l-1.1,0.7l-0.5,0.9l-1.7,0.7c-1.4-0.4-2.9-0.5-4.4-0.4l-0.5-1.7c2.8-1,6.4-4.4,10.7-10.2h0.4c0.1-0.4,0.5-1,1-1.6
		l0.3-1.3h0.3c0.9-1.3,2.2-4.1,4.1-8.4c1.9-4.4,2.9-7.2,2.9-8.2l-0.7-0.2l-1.5-5.1l0.2-2.3c-0.4-0.4-1.5-3.4-3.3-9l0.2-0.7
		c-0.3-3.4-0.5-5.6-0.5-6.4c0-0.3,0.1-0.7,0.2-1.3c0.1-0.6,0.2-1,0.2-1.3v-8.4l1.1,2.1l0.8-0.7l-0.3-2.7l-1.9-2.4
		c0-6.9,0.6-13,1.7-18.2c0.9-4.1,2.8-9.3,5.8-15.5l0.6-0.4V8.2h0.8V7.2c0.9-0.7,1.7-1.2,2.2-1.4l0.3-1.1l0.3,0.4l1.6-1l0.8,0.4
		l0.4-1.4h1.9l1.5,2.4l0.9,0.6l0.7,3.3c0.6,0.2,1.4,0.9,2.3,2.1l0.2,1l1.2,1.1l-0.4,1.2l-0.5,0.7l0.2,3.4l-0.2,0.6l0.9,1.4l-0.4,3.4
		h-0.3v2.4H393l-0.3,1.2l0.5,1.7l-0.5,1v3.4l-0.8,1.9l-0.2,3.7l-1.2,3.1v1h-0.3c-0.5,1.4-0.8,3.3-1,5.7c-0.3,3.7-0.5,5.6-0.6,5.8
		c-0.3,1.3-0.7,3.3-1.1,6.1l-1.7,2.4c-0.7,2.1-1.5,5.2-2.2,9.4h-0.9v1l-0.8,1.8c0.2,1.7,0.4,2.8,0.6,3.3l-0.6,0.4
		c0.6,3.3,1.6,6.7,3,10.4l0.7,0.4c0.2,2,0.8,3.2,1.5,3.6c0.4,1.2,1.2,2.2,2.2,2.9c1,0.7,1.6,1.2,1.8,1.4c0.2,0.2,0.8,0.4,1.6,0.7
		c0.5,0,1.2-0.1,2-0.4c1-0.3,1.6-0.5,1.9-0.6c1-1.2,1.9-1.9,2.7-2.1l0.6-1l1.2-0.5c1.3-1.5,2.4-2.8,3.1-4.1l0.7,0.8L405.1,92.6z
		 M391,17.3c0-0.4-0.1-0.9-0.2-1.4l-0.3-0.2v-0.7l-1-1.2v-1.1H389l-1.1-4.3l-0.2,1l-0.3-1.4l-0.9-1l-0.2,0.6l-0.6-0.6l-0.2,1
		l-0.7,0.7l-0.2,1.4l-0.8,0.2c-0.5,4-1.2,6.5-2,7.4v0.7l-2.2,5v0.4c-0.7,0.7-1.3,2-1.9,4c-0.6,2-0.9,3.6-0.9,4.8
		c0,0.5,0.1,1.4,0.2,2.7c0.1,1.2,0.1,2.1,0.1,2.7l0.7,1.2l-1.3-1l0.3,3.1l1.3,2.3c0.3,1.1,0.5,2.1,0.4,2.8l0.2,0.2l-0.2,0.4l0.5,1
		l0.3,5h-0.6l-0.2,2.1l-0.4-1.2l-1,1.2c0.6,2.5,0.8,5.3,0.5,8.4l0.5,1.7l-0.5,1.4c0.2,1.5,0.3,2.8,0.2,4l2,4.1
		c0.8-1.3,1.3-3,1.8-5.1c0.3-1.8,0.7-3.6,1-5.4l0.4,0.4l0.3-2.4l-0.3-0.6l0.3-1.7l1.3-0.6c-0.1-1.5,0.3-3.1,1.1-4.7
		c0-1.3-0.1-2.1-0.2-2.4l1.9-5.4H387v-0.6l-0.5-1.1l0.3-1.6l0.2,0.2v-0.6l1.2-1.1c0.3-1.5,0.7-3.9,1.2-7c-0.1-1-0.1-2.3,0-4.1
		c0.2-0.7,0.4-1.8,0.7-3.3c-0.1-1.2-0.1-3,0-5.4c0-0.5,0.2-1.3,0.5-2.4C390.8,18.7,391,17.9,391,17.3z"/>
	<path class="st0" d="M438.9,86.6l-1.2,4.7h-0.2V92l-0.8,0.6l-0.6,2.7l-0.6,0.4c-0.6,1.2-1.4,3-2.2,5.4h-0.8l-1.1,2.1l-0.6,0.4v0.2
		c-1.7,0.7-3.9,1.1-6.6,1.1c-1-0.3-1.6-0.5-1.9-0.6l-0.6,0.4h-1.1l-2.2-1.4l-0.6,0.4l-0.2-0.7l-0.8,0.4l-0.6-0.6h-0.8l0.2-0.4
		l-0.5-0.2c-1.1-1.6-2-2.5-2.7-2.8c-2.4-3.7-4-7.1-4.8-10.4c-0.9-3.2-1.3-7.3-1.3-12.2c0.4-2.3,0.7-3.7,0.8-4.3l0.9-0.4l0.2-1.4
		l1.7-1.9h0.3c0.8-3.9,1.8-6.5,3-7.8l1.4,0.4l0.8-1.7l1.4-1.3v-0.4l4.1-2.1l1.6,0.8V56l1.4,0.4l0.6,1l1.4,0.9
		c0.5,1.5,1.3,3.1,2.5,4.7l-1.1,3.7l-0.6-0.3l-0.8,0.3v0.7H425l-1.4-1.4l-0.5,0.7l-3.1,1.4l-0.6-0.6l-0.5,0.6h-0.6l-1.1,1.3v1.7
		l-2.2,2.3l-0.8,2.1l-1.4,0.4l-0.5,0.6l-0.3,1.7l0.3,2.1l-0.7,1.6c-0.1,1.7-0.2,3.1-0.2,4.1c0,1.6,0.2,3.3,0.6,5l0.8,1.4l0.5,2.3
		c0.5,0.2,1.8,1.7,3.9,4.7c1.8,0.5,3.7,1.1,5.6,1.6c3.3,0,5.5-0.4,6.6-1.2V99l0.5-0.2v-0.4c3.2-4,4.7-7.4,4.7-10
		c0-2.4-0.5-5.1-1.4-8c-1.3-0.9-2.7-1.2-4.4-1.1l-0.3-1h-0.5l-0.5,0.6h-0.3v1.7l-0.6-0.2l-2,0.6v0.4l-1.3,0.2l-1.1,1.8v4.3l0.6,1.7
		l1.3,1l0.3-0.4l1.4,0.4l0.5-0.6h0.5c0.8-0.6,1.5-0.9,2-1l1.7-4.5l0.8,0.4l-0.6,4.1l-1,2.1l-0.3,1.9l-1.4,0.8v0.6l-1.7,0.6l-2.2-0.2
		l-0.5-0.7l-1.4-0.7c-0.3-0.7-0.9-1.6-1.7-2.7l-0.3-1l-1.6-2.1l0.3-4.3l-0.6-0.4c0-2.5,0.3-4.7,0.9-6.4l0.5-0.2l0.8-2.4
		c0.5-0.6,1.5-1,3.1-1.2l0.8,0.6c1.1-0.5,1.9-0.7,2.4-0.6l0.7-0.8l1.3-0.6l1.4,0.4l4.7,4l0.3,0.7l0.8,0.6c0.1,1.6,0.5,3.7,1.1,6.4
		l0.5,0.4l0.3,0.9v1.1L438.9,86.6z"/>
	<path class="st0" d="M481.7,132.1l-0.9,1.1c0.1,2.5-0.5,5.4-1.9,8.7v1.6l-3.6,5.5l-0.7-0.4v-1c-0.7,1.9-2.2,3.7-4.4,5.4l-1.3-1v1.4
		l-1.9,1l0.2,0.3l-2.2,1l-0.5-0.2V155l0.3-0.4l-0.9-0.3c-1,1.4-2.1,2.4-3.3,3.1c-1,0-2.4-0.2-4.2-0.4c-0.2,0-0.4-0.1-0.8-0.3
		c-0.4-0.2-0.6-0.3-0.8-0.3c-1.1-0.1-2.1-0.2-3.1-0.4c-1.3-0.2-2.3-0.7-3-1.4H447l0.2-0.9c-2-0.5-3.9-2-5.8-4.4l-0.8-3
		c0.2-1.5,0.3-2.3,0.3-2.4c0-0.7-0.1-1.7-0.2-3c-0.1-1.3-0.2-2.3-0.2-3c0-0.7,0.5-2.5,1.4-5.2c0.9-2.5,1.5-4.2,1.9-4.9
		c1.3-2.2,3.2-4.4,5.8-6.5c1.2-0.5,2.4-0.9,3.6-1.2h6.1c2,0.7,3.8,2.2,5.6,4.3c0.6,0.9,1.1,2.2,1.4,3.9c0.5,2.2,0.8,3.5,1.1,4.1v2.8
		c0,0.7-1.1,3.3-3.3,7.7l-0.6-0.2v0.6c-0.1,0-0.3,0.1-0.7,0.2c-0.4,0.1-0.7,0.2-0.7,0.2c-0.1,0-1.1-0.1-2.8-0.4l-0.7,0.7l-3.7-1.1
		l-0.2-0.6l-1.1-1l-0.9,0.6l-2.7-1.7l-1.1-1.6c-0.2-1.4-0.3-2.5-0.3-3.4c0-0.7,0.1-1.7,0.3-3.1c0.9-2.3,1.9-3.7,3-4.1V127l0.6-1
		c1,0.4,2,0.5,3.1,0.4l1.3,1.4l0.6,1.3l-0.9,0.6L455,130l-1.6,5.4l1.1,3.5l2.2,1.9l3.6-1.9l1.1-2.8h0.6l1.1-1.3l1.7,0.4l0.5-1
		l-1.1-2.1l-1.4-0.6l-0.5-3.7c-1.2-1.2-1.9-2.2-2.2-3.1l1-1l-0.2-0.6l-1.5-1.1l-1.3,0.2v0.4c-1.9,0.2-3,0.4-3.1,0.4
		c-0.2,0-0.9-0.1-2.2-0.4c-1.2,0.4-2.5,1.4-4,3.1c-1.5,1.7-2.5,3.2-2.9,4.6l-0.8,0.7c0,0.2,0,0.7,0.1,1.2s0.1,1,0.1,1.2
		c0,0.1-0.1,0.9-0.3,2.4l0.4,1.5l-0.7,0.4l0.3,1.1h-0.9c0.7,1.2,1.1,2.3,1.1,3.3l-1.1-0.4l-0.5,1.4l1.1,1.1h0.8l0.8,0.6l0.3,1
		l1.6,1.3l0.3,2.4h1.4l0.8-0.7l2.8,1.7h3.3l1.4-0.6l0.3,1.2l0.8,0.4l0.9-1.4l0.8,0.4V150c0.9,0.2,1.5,0.2,1.9,0.2
		c0.3,0,0.7-0.1,1.1-0.2v-1.1l1.9,1.1l1.7-1.4v-0.6l0.5,0.2l2.9-2.9l0.2-1.4l0.7-0.4l-0.2-0.9c1.9-1.9,3.2-5.2,3.9-9.9h0.6l0.2-0.4
		l0.9,1.4v-4.4h-0.6l-0.3,0.6l-0.5-0.6h-1.2c-0.5-2.4-0.7-4.1-0.5-5.1l-1.7-2.3l0.7-1.4h-1.2l0.5-1.1c-1-1.2-1.9-1.9-2.7-2l-0.3-0.9
		c-0.7-0.8-1.3-1.2-1.9-1.4l-0.3,0.6l-1.9-0.6l-2,0.4l-0.8-0.4l-0.2-0.6l-0.9,0.2l-0.8-0.7c-0.8,0.2-1.5,0-2.2-0.4l-0.5,0.4
		l-4.2-5.4v-1.4l-1.1-1.3l0.2-1.4l1.2-2.1l0.8-0.2c0.5-0.8,1.4-1.4,2.4-1.7l1.2-1.7c-0.8-0.9-1.8-2.2-3-4c-0.6-1-1.4-2.6-2.6-4.7
		c0.4-2.5,0-5.6-1.3-9.4c0.9-7.9,2-14.2,3.3-18.9h0.2c0.6-1,1.3-2.5,2.2-4.6h0.7l0.5-1.4l2.5-0.4l3,1.1l1.4,1.6l-0.3,1.8l0.3,0.6
		l-0.8,0.7l-1.2,3.4l-0.5,0.6l-0.5,1.7l-1.2,0.6l-0.2,1l-1.5-1l-0.2,1.7l0.6,1.4l-0.9,3.1l-1.3,1.3V84c0,0.5,0.1,1.2,0.3,2.2
		c0.2,1,0.3,1.7,0.3,2.2c0,0.4-0.1,0.9-0.2,1.4l-0.7,1.3l1.5,4.3l1.9,2.1l0.8-1l1.1-0.2l0.6,0.6l1.9-3.3v-0.8l1.1,0.4l1.7-0.6
		l1.1-3.1L468,87l0.9-1.4l0.5-0.4c-0.2-1.6,0-3.3,0.6-5l-0.8-2.7c0-0.3,0.1-0.6,0.1-0.9c0-1-0.2-2.6-0.7-4.7c-0.4-1.9-0.6-3-0.5-3.5
		l-0.5-1l-2.2-2.1V63h1.1c0.7,0,1.6,0.4,2.5,1.1l1.1-0.3l0.9,0.7l-0.4-0.7l4.1-5.5l-0.5-0.2c0.5-1.1,0.8-2.9,0.8-5.4l-0.5-2.4
		l-0.5,2.1l-2,1.7c-0.2-0.7-0.3-2.2-0.3-4.4c0.3-1.2,0.5-2.1,0.6-2.4l-0.3-0.9h3.4l2.7,1.6c1.9,2.5,2.9,5,3,7.4l-0.8,0.2l-0.5,1.4
		l-1.4,1.2l-1.1,2.8l-1.7,0.9c-0.5,0.8-1.3,1.8-2.4,3.1l-1.2,0.4l-1,1.7h0.5v0.4l0.8,0.6l-0.8,0.4l0.5,1.9l-0.5,2.7l0.8,1.8l0.2,3.3
		h-0.2l0.5,1.4l-0.3,2.3l0.9,2.1l-0.2,2.1l-3.4,7.7l-0.5-0.7l-0.6,1.7l-0.8,0.6h-1.4l-0.3,1.1h-0.3v0.7l-1,0.6l0.5,1.1l-2,2.6
		l-4.4,1.4l-1,1.8v1.2h-0.3l-0.6,2.7l0.2,0.8l-0.2,0.6l3.6,1.6c3.5-0.5,6.2-0.1,8.3,1.4l0.8,0.9c1.2,0.3,2.4,1,3.6,2.1l0.3-0.2
		l1.3,1l3.9,6.1l0.6-0.7l0.6,0.7L481.7,132.1z"/>
</g>
<g>
</g>
<g>
</g>
<g>
</g>
<g>
</g>
<g>
</g>
<g>
</g>
<g>
</g>
<g>
</g>
<g>
</g>
<g>
</g>
<g>
</g>
<g>
</g>
<g>
</g>
<g>
</g>
<g>
</g>
</svg>
